<mxfile host="app.diagrams.net" agent="Mozilla/5.0 (X11; Linux x86_64; rv:135.0) Gecko/20100101 Firefox/135.0" version="26.1.1">
  <diagram name="Page-1" id="tYWkpFjugVyIhqSa52aw">
    <mxGraphModel dx="1687" dy="881" grid="1" gridSize="10" guides="1" tooltips="1" connect="1" arrows="1" fold="1" page="1" pageScale="1" pageWidth="850" pageHeight="1100" math="0" shadow="0">
      <root>
        <mxCell id="0" />
        <mxCell id="1" parent="0" />
        <mxCell id="ZivhqzZswGJpU1-0bC7G-1" value="" style="swimlane;startSize=0;dashed=1;" parent="1" vertex="1">
          <mxGeometry x="270" y="170" width="420" height="210" as="geometry" />
        </mxCell>
        <mxCell id="ZivhqzZswGJpU1-0bC7G-2" value="" style="sketch=0;points=[[0,0,0],[0.25,0,0],[0.5,0,0],[0.75,0,0],[1,0,0],[0,1,0],[0.25,1,0],[0.5,1,0],[0.75,1,0],[1,1,0],[0,0.25,0],[0,0.5,0],[0,0.75,0],[1,0.25,0],[1,0.5,0],[1,0.75,0]];outlineConnect=0;fontColor=#232F3E;fillColor=#8C4FFF;strokeColor=#ffffff;dashed=0;verticalLabelPosition=bottom;verticalAlign=top;align=center;html=1;fontSize=12;fontStyle=0;aspect=fixed;shape=mxgraph.aws4.resourceIcon;resIcon=mxgraph.aws4.transit_gateway;" parent="ZivhqzZswGJpU1-0bC7G-1" vertex="1">
          <mxGeometry width="40" height="40" as="geometry" />
        </mxCell>
        <mxCell id="ZivhqzZswGJpU1-0bC7G-8" value="&lt;div&gt;Route table&lt;/div&gt;&lt;div&gt;(spoke to firewall)&lt;/div&gt;" style="sketch=0;outlineConnect=0;fontColor=#232F3E;gradientColor=none;fillColor=#8C4FFF;strokeColor=none;dashed=0;verticalLabelPosition=bottom;verticalAlign=top;align=center;html=1;fontSize=12;fontStyle=0;aspect=fixed;pointerEvents=1;shape=mxgraph.aws4.route_table;" parent="ZivhqzZswGJpU1-0bC7G-1" vertex="1">
          <mxGeometry x="122" y="82" width="78" height="76" as="geometry" />
        </mxCell>
        <mxCell id="ZivhqzZswGJpU1-0bC7G-21" value="Transit gateway" style="text;html=1;align=center;verticalAlign=middle;resizable=0;points=[];autosize=1;strokeColor=none;fillColor=none;" parent="ZivhqzZswGJpU1-0bC7G-1" vertex="1">
          <mxGeometry x="106" width="110" height="30" as="geometry" />
        </mxCell>
        <mxCell id="ZivhqzZswGJpU1-0bC7G-22" value="Legend" style="shape=table;startSize=30;container=1;collapsible=0;childLayout=tableLayout;fontSize=16;align=left;verticalAlign=top;fillColor=none;strokeColor=none;fontColor=#4D4D4D;fontStyle=1;spacingLeft=6;spacing=0;resizable=0;" parent="ZivhqzZswGJpU1-0bC7G-1" vertex="1">
          <mxGeometry x="250" width="161" height="90" as="geometry" />
        </mxCell>
        <mxCell id="ZivhqzZswGJpU1-0bC7G-23" value="" style="shape=tableRow;horizontal=0;startSize=0;swimlaneHead=0;swimlaneBody=0;strokeColor=inherit;top=0;left=0;bottom=0;right=0;collapsible=0;dropTarget=0;fillColor=none;points=[[0,0.5],[1,0.5]];portConstraint=eastwest;fontSize=12;" parent="ZivhqzZswGJpU1-0bC7G-22" vertex="1">
          <mxGeometry y="30" width="161" height="30" as="geometry" />
        </mxCell>
        <mxCell id="ZivhqzZswGJpU1-0bC7G-24" value="Traffic from spokes to hub" style="shape=partialRectangle;html=1;whiteSpace=wrap;connectable=0;strokeColor=#b85450;overflow=hidden;fillColor=#f8cecc;top=0;left=0;bottom=0;right=0;pointerEvents=1;fontSize=12;align=left;spacingLeft=10;spacingRight=4;" parent="ZivhqzZswGJpU1-0bC7G-23" vertex="1">
          <mxGeometry width="161" height="30" as="geometry">
            <mxRectangle width="161" height="30" as="alternateBounds" />
          </mxGeometry>
        </mxCell>
        <mxCell id="ZivhqzZswGJpU1-0bC7G-25" value="" style="shape=tableRow;horizontal=0;startSize=0;swimlaneHead=0;swimlaneBody=0;strokeColor=inherit;top=0;left=0;bottom=0;right=0;collapsible=0;dropTarget=0;fillColor=none;points=[[0,0.5],[1,0.5]];portConstraint=eastwest;fontSize=12;" parent="ZivhqzZswGJpU1-0bC7G-22" vertex="1">
          <mxGeometry y="60" width="161" height="30" as="geometry" />
        </mxCell>
        <mxCell id="ZivhqzZswGJpU1-0bC7G-26" value="Traffic from hub to spokes" style="shape=partialRectangle;html=1;whiteSpace=wrap;connectable=0;strokeColor=#d6b656;overflow=hidden;fillColor=#fff2cc;top=0;left=0;bottom=0;right=0;pointerEvents=1;fontSize=12;align=left;spacingLeft=10;spacingRight=4;" parent="ZivhqzZswGJpU1-0bC7G-25" vertex="1">
          <mxGeometry width="161" height="30" as="geometry">
            <mxRectangle width="161" height="30" as="alternateBounds" />
          </mxGeometry>
        </mxCell>
        <mxCell id="ZivhqzZswGJpU1-0bC7G-27" value="Hub VPC" style="sketch=0;points=[[0,0,0],[0.25,0,0],[0.5,0,0],[0.75,0,0],[1,0,0],[0,1,0],[0.25,1,0],[0.5,1,0],[0.75,1,0],[1,1,0],[0,0.25,0],[0,0.5,0],[0,0.75,0],[1,0.25,0],[1,0.5,0],[1,0.75,0]];outlineConnect=0;fontColor=#232F3E;fillColor=#8C4FFF;strokeColor=#ffffff;dashed=0;verticalLabelPosition=bottom;verticalAlign=top;align=center;html=1;fontSize=12;fontStyle=0;aspect=fixed;shape=mxgraph.aws4.resourceIcon;resIcon=mxgraph.aws4.vpc;" parent="1" vertex="1">
          <mxGeometry x="858" y="250" width="78" height="78" as="geometry" />
        </mxCell>
        <mxCell id="ZivhqzZswGJpU1-0bC7G-62" style="edgeStyle=orthogonalEdgeStyle;rounded=0;orthogonalLoop=1;jettySize=auto;html=1;startArrow=classic;startFill=1;" parent="1" source="ZivhqzZswGJpU1-0bC7G-28" target="ZivhqzZswGJpU1-0bC7G-14" edge="1">
          <mxGeometry relative="1" as="geometry" />
        </mxCell>
        <mxCell id="ZivhqzZswGJpU1-0bC7G-28" value="&lt;div&gt;Spoke VPC&lt;/div&gt;&lt;div&gt;(172.16.0.0/12)&lt;/div&gt;" style="sketch=0;points=[[0,0,0],[0.25,0,0],[0.5,0,0],[0.75,0,0],[1,0,0],[0,1,0],[0.25,1,0],[0.5,1,0],[0.75,1,0],[1,1,0],[0,0.25,0],[0,0.5,0],[0,0.75,0],[1,0.25,0],[1,0.5,0],[1,0.75,0]];outlineConnect=0;fontColor=#232F3E;fillColor=#8C4FFF;strokeColor=#ffffff;dashed=0;verticalLabelPosition=bottom;verticalAlign=top;align=center;html=1;fontSize=12;fontStyle=0;aspect=fixed;shape=mxgraph.aws4.resourceIcon;resIcon=mxgraph.aws4.vpc;" parent="1" vertex="1">
          <mxGeometry x="10" y="250" width="78" height="78" as="geometry" />
        </mxCell>
        <mxCell id="ZivhqzZswGJpU1-0bC7G-30" value="" style="shape=table;startSize=0;container=1;collapsible=0;childLayout=tableLayout;" parent="1" vertex="1">
          <mxGeometry x="80" y="50" width="250" height="80" as="geometry" />
        </mxCell>
        <mxCell id="ZivhqzZswGJpU1-0bC7G-31" value="" style="shape=tableRow;horizontal=0;startSize=0;swimlaneHead=0;swimlaneBody=0;strokeColor=inherit;top=0;left=0;bottom=0;right=0;collapsible=0;dropTarget=0;fillColor=none;points=[[0,0.5],[1,0.5]];portConstraint=eastwest;" parent="ZivhqzZswGJpU1-0bC7G-30" vertex="1">
          <mxGeometry width="250" height="40" as="geometry" />
        </mxCell>
        <mxCell id="ZivhqzZswGJpU1-0bC7G-32" value="Destination" style="shape=partialRectangle;html=1;whiteSpace=wrap;connectable=0;strokeColor=#666666;overflow=hidden;fillColor=#f5f5f5;top=0;left=0;bottom=0;right=1;pointerEvents=1;align=center;fontColor=#333333;" parent="ZivhqzZswGJpU1-0bC7G-31" vertex="1">
          <mxGeometry width="132" height="40" as="geometry">
            <mxRectangle width="132" height="40" as="alternateBounds" />
          </mxGeometry>
        </mxCell>
        <mxCell id="ZivhqzZswGJpU1-0bC7G-33" value="Target" style="shape=partialRectangle;html=1;whiteSpace=wrap;connectable=0;strokeColor=#666666;overflow=hidden;fillColor=#f5f5f5;top=0;left=1;bottom=0;right=0;pointerEvents=1;fontColor=#333333;" parent="ZivhqzZswGJpU1-0bC7G-31" vertex="1">
          <mxGeometry x="132" width="118" height="40" as="geometry">
            <mxRectangle width="118" height="40" as="alternateBounds" />
          </mxGeometry>
        </mxCell>
        <mxCell id="ZivhqzZswGJpU1-0bC7G-37" value="" style="shape=tableRow;horizontal=0;startSize=0;swimlaneHead=0;swimlaneBody=0;strokeColor=inherit;top=0;left=0;bottom=0;right=0;collapsible=0;dropTarget=0;fillColor=none;points=[[0,0.5],[1,0.5]];portConstraint=eastwest;" parent="ZivhqzZswGJpU1-0bC7G-30" vertex="1">
          <mxGeometry y="40" width="250" height="40" as="geometry" />
        </mxCell>
        <mxCell id="ZivhqzZswGJpU1-0bC7G-38" value="0.0.0.0/0" style="shape=partialRectangle;html=1;whiteSpace=wrap;connectable=0;strokeColor=#9673a6;overflow=hidden;fillColor=#e1d5e7;top=0;left=0;bottom=0;right=0;pointerEvents=1;" parent="ZivhqzZswGJpU1-0bC7G-37" vertex="1">
          <mxGeometry width="132" height="40" as="geometry">
            <mxRectangle width="132" height="40" as="alternateBounds" />
          </mxGeometry>
        </mxCell>
        <mxCell id="ZivhqzZswGJpU1-0bC7G-39" value="Hub transit gateway attachment" style="shape=partialRectangle;html=1;whiteSpace=wrap;connectable=0;strokeColor=#9673a6;overflow=hidden;fillColor=#e1d5e7;top=0;left=0;bottom=0;right=0;pointerEvents=1;" parent="ZivhqzZswGJpU1-0bC7G-37" vertex="1">
          <mxGeometry x="132" width="118" height="40" as="geometry">
            <mxRectangle width="118" height="40" as="alternateBounds" />
          </mxGeometry>
        </mxCell>
        <mxCell id="ZivhqzZswGJpU1-0bC7G-63" style="edgeStyle=orthogonalEdgeStyle;rounded=0;orthogonalLoop=1;jettySize=auto;html=1;startArrow=classic;startFill=1;" parent="1" source="ZivhqzZswGJpU1-0bC7G-20" target="ZivhqzZswGJpU1-0bC7G-27" edge="1">
          <mxGeometry relative="1" as="geometry" />
        </mxCell>
        <mxCell id="ZivhqzZswGJpU1-0bC7G-20" value="&lt;div&gt;Hub&lt;/div&gt;&lt;div&gt;transit gateway&lt;/div&gt;&lt;div&gt;attachment&lt;/div&gt;" style="sketch=0;outlineConnect=0;fontColor=#232F3E;gradientColor=none;fillColor=#8C4FFF;strokeColor=none;dashed=0;verticalLabelPosition=bottom;verticalAlign=top;align=center;html=1;fontSize=12;fontStyle=0;aspect=fixed;pointerEvents=1;shape=mxgraph.aws4.transit_gateway_attachment;" parent="1" vertex="1">
          <mxGeometry x="730" y="250" width="78" height="78" as="geometry" />
        </mxCell>
        <mxCell id="ZivhqzZswGJpU1-0bC7G-58" style="edgeStyle=orthogonalEdgeStyle;rounded=0;orthogonalLoop=1;jettySize=auto;html=1;curved=1;fillColor=#f8cecc;strokeColor=#b85450;" parent="1" source="ZivhqzZswGJpU1-0bC7G-14" target="ZivhqzZswGJpU1-0bC7G-8" edge="1">
          <mxGeometry relative="1" as="geometry">
            <Array as="points">
              <mxPoint x="230" y="290" />
              <mxPoint x="230" y="290" />
            </Array>
          </mxGeometry>
        </mxCell>
        <mxCell id="ZivhqzZswGJpU1-0bC7G-14" value="&lt;div&gt;Spoke&lt;/div&gt;&lt;div&gt;transit gateway&lt;/div&gt;&lt;div&gt;attachment&lt;/div&gt;" style="sketch=0;outlineConnect=0;fontColor=#232F3E;gradientColor=none;fillColor=#8C4FFF;strokeColor=none;dashed=0;verticalLabelPosition=bottom;verticalAlign=top;align=center;html=1;fontSize=12;fontStyle=0;aspect=fixed;pointerEvents=1;shape=mxgraph.aws4.transit_gateway_attachment;" parent="1" vertex="1">
          <mxGeometry x="140" y="250" width="78" height="78" as="geometry" />
        </mxCell>
        <mxCell id="ZivhqzZswGJpU1-0bC7G-56" style="edgeStyle=orthogonalEdgeStyle;rounded=0;orthogonalLoop=1;jettySize=auto;html=1;dashed=1;strokeColor=light-dark(#613583, #ededed);" parent="1" source="ZivhqzZswGJpU1-0bC7G-8" target="ZivhqzZswGJpU1-0bC7G-31" edge="1">
          <mxGeometry relative="1" as="geometry">
            <Array as="points">
              <mxPoint x="431" y="220" />
              <mxPoint x="340" y="220" />
              <mxPoint x="340" y="70" />
            </Array>
          </mxGeometry>
        </mxCell>
        <mxCell id="ZivhqzZswGJpU1-0bC7G-60" style="edgeStyle=orthogonalEdgeStyle;rounded=0;orthogonalLoop=1;jettySize=auto;html=1;curved=1;fillColor=#f8cecc;strokeColor=#b85450;" parent="1" source="ZivhqzZswGJpU1-0bC7G-8" target="ZivhqzZswGJpU1-0bC7G-20" edge="1">
          <mxGeometry relative="1" as="geometry">
            <Array as="points">
              <mxPoint x="680" y="290" />
              <mxPoint x="680" y="290" />
            </Array>
          </mxGeometry>
        </mxCell>
        <mxCell id="kVEKrC3F90sRtNk4gE4x-1" value="" style="shape=flexArrow;endArrow=classic;html=1;rounded=0;width=44;endSize=12.902857142857142;strokeColor=light-dark(#613583, #ededed);fontColor=light-dark(#613583, #ededed);" edge="1" parent="1">
          <mxGeometry width="50" height="50" relative="1" as="geometry">
            <mxPoint x="30" y="430" as="sourcePoint" />
            <mxPoint x="930" y="430" as="targetPoint" />
          </mxGeometry>
        </mxCell>
        <mxCell id="kVEKrC3F90sRtNk4gE4x-2" value="&lt;font&gt;Traffic from spoke routed to the internet (DESTINATION) through the hub transit gateway attachment (TARGET)&lt;/font&gt;" style="edgeLabel;html=1;align=center;verticalAlign=middle;resizable=0;points=[];fontColor=light-dark(#613583, #ededed);fontSize=15;" vertex="1" connectable="0" parent="kVEKrC3F90sRtNk4gE4x-1">
          <mxGeometry x="0.1673" y="4" relative="1" as="geometry">
            <mxPoint x="-85" y="4" as="offset" />
          </mxGeometry>
        </mxCell>
      </root>
    </mxGraphModel>
  </diagram>
</mxfile>
